<svg width="38" height="60" viewBox="0 0 38 60" fill="none" xmlns="http://www.w3.org/2000/svg">
<path d="M21.901 49.7143V44.5966L32.1641 38.4178C32.1645 38.4175 32.1651 38.4178 32.1656 38.4174C32.166 38.4171 32.1662 38.4165 32.1668 38.4162L32.1678 38.4156C32.1683 38.4153 32.1681 38.4147 32.1685 38.4144C32.2257 38.3789 32.2618 38.3166 32.2618 38.249V12.8173C32.2618 12.7473 32.2244 12.683 32.1645 12.6484H32.1641C32.1345 12.6317 32.1011 12.6231 32.0673 12.6237C32.0334 12.6242 32.0003 12.6338 31.9713 12.6514L31.8245 12.741L21.6881 18.8724V13.7336L37.6169 4.03746V40.1375L21.901 49.7143ZM5.68298 23.423L21.3051 13.9648V19.1047L10.9729 25.346C10.9441 25.3632 10.9203 25.3876 10.9038 25.4169C10.8872 25.4462 10.8785 25.4794 10.8784 25.5131V51.0059C10.8784 51.076 10.9159 51.1403 10.9761 51.1743C11.0055 51.1914 11.039 51.2002 11.0729 51.1997C11.1068 51.1992 11.14 51.1894 11.1689 51.1714L21.518 44.8297V49.9463L5.68298 59.4652V23.423ZM0.382873 20.007L5.30002 23.4149V59.4738L0.382873 56.6648V20.0068V20.007ZM16.2289 10.1125L21.2625 13.5921L5.49892 23.0828L0.545264 19.6497L16.2289 10.1123V10.1125ZM32.1889 0.48816L37.4381 3.6937L21.6084 13.3824L16.5753 9.90329L32.1889 0.488311V0.48816ZM26.8362 34.9263L11.2613 44.264V25.6238L26.8359 16.266V34.9263H26.8362ZM27.2192 34.926V16.0425L31.8788 13.1607V37.9112L27.219 34.926H27.2192ZM27.0277 35.2621L31.6927 38.2505L21.8453 44.1677L17.0661 41.1422L27.0277 35.2621ZM11.2614 44.7167L16.707 41.3577L21.4889 44.3853L11.2616 50.6623V44.7167H11.2614ZM37.9094 3.53175C37.908 3.53085 37.9085 3.52874 37.9071 3.52769L32.2883 0.0964337C32.2587 0.0785365 32.2249 0.0690496 32.1904 0.0689702C32.156 0.0688908 32.1221 0.0782219 32.0924 0.0959826L0.0926778 19.4733C0.089709 19.4751 0.0907481 19.4798 0.0879278 19.4817C0.0380527 19.5154 0.00554492 19.5689 0.0022793 19.6301C0.0022793 19.6316 0.000201172 19.6322 0.000201172 19.6337C0.000201172 19.6343 0.00094336 19.6345 0.00094336 19.6353C0.00094336 19.6368 -0.000244141 19.6378 -0.000244141 19.6395V56.7782C-0.000244141 56.8482 0.0371621 56.9125 0.0972793 56.9466L5.39531 59.973C5.39591 59.9733 5.39605 59.9739 5.3965 59.9742C5.42619 59.9912 5.45884 59.9998 5.4915 59.9998C5.52445 59.9998 5.5583 59.9903 5.58798 59.9733L5.58902 59.9723L37.9068 40.413C37.9643 40.3778 37.9998 40.3154 37.9998 40.2473V3.6937C37.9994 3.66115 37.9909 3.62923 37.9751 3.6009C37.9593 3.57258 37.9366 3.54879 37.9092 3.53175H37.9094Z" fill="#241200"/>
</svg>
